<svg xmlns="http://www.w3.org/2000/svg" viewBox="0 0 1920 1920" width="1920" height="1920">
<rect width="1920" height="1920" fill="#0a0420"/>
<rect x="491" y="492" width="938" height="922" rx="0" fill="#b8742f" fill-opacity="0.18" stroke="#b8742f" stroke-width="2"/>
<rect x="491" y="492" width="938" height="66" rx="0" fill="#b8742f" fill-opacity="0.45" stroke="#b8742f" stroke-width="0"/>
<rect x="491" y="1349" width="938" height="65" rx="0" fill="#b8742f" fill-opacity="0.45" stroke="#b8742f" stroke-width="0"/>
<rect x="566" y="557" width="788" height="788" rx="0" fill="#0c3149" fill-opacity="0.9" stroke="#35f2e0" stroke-width="1.5"/>
<rect x="578" y="569" width="124" height="124" rx="6.0" fill="#1f2e4d" fill-opacity="1" stroke="#2c4270" stroke-width="1"/>
<rect x="578" y="697" width="124" height="124" rx="6.0" fill="#1f2e4d" fill-opacity="1" stroke="#2c4270" stroke-width="1"/>
<rect x="578" y="825" width="124" height="124" rx="6.0" fill="#1f2e4d" fill-opacity="1" stroke="#2c4270" stroke-width="1"/>
<rect x="578" y="953" width="124" height="124" rx="6.0" fill="#1f2e4d" fill-opacity="1" stroke="#2c4270" stroke-width="1"/>
<rect x="578" y="1081" width="124" height="124" rx="6.0" fill="#1f2e4d" fill-opacity="1" stroke="#2c4270" stroke-width="1"/>
<rect x="578" y="1209" width="124" height="124" rx="6.0" fill="#1f2e4d" fill-opacity="1" stroke="#2c4270" stroke-width="1"/>
<rect x="706" y="569" width="124" height="124" rx="6.0" fill="#1f2e4d" fill-opacity="1" stroke="#2c4270" stroke-width="1"/>
<rect x="706" y="697" width="124" height="124" rx="6.0" fill="#1f2e4d" fill-opacity="1" stroke="#2c4270" stroke-width="1"/>
<rect x="706" y="825" width="124" height="124" rx="6.0" fill="#1f2e4d" fill-opacity="1" stroke="#2c4270" stroke-width="1"/>
<rect x="706" y="953" width="124" height="124" rx="6.0" fill="#1f2e4d" fill-opacity="1" stroke="#2c4270" stroke-width="1"/>
<rect x="706" y="1081" width="124" height="124" rx="6.0" fill="#1f2e4d" fill-opacity="1" stroke="#2c4270" stroke-width="1"/>
<rect x="706" y="1209" width="124" height="124" rx="6.0" fill="#1f2e4d" fill-opacity="1" stroke="#2c4270" stroke-width="1"/>
<rect x="834" y="569" width="124" height="124" rx="6.0" fill="#1f2e4d" fill-opacity="1" stroke="#2c4270" stroke-width="1"/>
<rect x="834" y="697" width="124" height="124" rx="6.0" fill="#1f2e4d" fill-opacity="1" stroke="#2c4270" stroke-width="1"/>
<rect x="834" y="825" width="124" height="124" rx="6.0" fill="#1f2e4d" fill-opacity="1" stroke="#2c4270" stroke-width="1"/>
<rect x="834" y="953" width="124" height="124" rx="6.0" fill="#1f2e4d" fill-opacity="1" stroke="#2c4270" stroke-width="1"/>
<rect x="834" y="1081" width="124" height="124" rx="6.0" fill="#1f2e4d" fill-opacity="1" stroke="#2c4270" stroke-width="1"/>
<rect x="834" y="1209" width="124" height="124" rx="6.0" fill="#1f2e4d" fill-opacity="1" stroke="#2c4270" stroke-width="1"/>
<rect x="962" y="569" width="124" height="124" rx="6.0" fill="#1f2e4d" fill-opacity="1" stroke="#2c4270" stroke-width="1"/>
<rect x="962" y="697" width="124" height="124" rx="6.0" fill="#1f2e4d" fill-opacity="1" stroke="#2c4270" stroke-width="1"/>
<rect x="962" y="825" width="124" height="124" rx="6.0" fill="#1f2e4d" fill-opacity="1" stroke="#2c4270" stroke-width="1"/>
<rect x="962" y="953" width="124" height="124" rx="6.0" fill="#1f2e4d" fill-opacity="1" stroke="#2c4270" stroke-width="1"/>
<rect x="962" y="1081" width="124" height="124" rx="6.0" fill="#1f2e4d" fill-opacity="1" stroke="#2c4270" stroke-width="1"/>
<rect x="962" y="1209" width="124" height="124" rx="6.0" fill="#1f2e4d" fill-opacity="1" stroke="#2c4270" stroke-width="1"/>
<rect x="1090" y="569" width="124" height="124" rx="6.0" fill="#1f2e4d" fill-opacity="1" stroke="#2c4270" stroke-width="1"/>
<rect x="1090" y="697" width="124" height="124" rx="6.0" fill="#1f2e4d" fill-opacity="1" stroke="#2c4270" stroke-width="1"/>
<rect x="1090" y="825" width="124" height="124" rx="6.0" fill="#1f2e4d" fill-opacity="1" stroke="#2c4270" stroke-width="1"/>
<rect x="1090" y="953" width="124" height="124" rx="6.0" fill="#1f2e4d" fill-opacity="1" stroke="#2c4270" stroke-width="1"/>
<rect x="1090" y="1081" width="124" height="124" rx="6.0" fill="#1f2e4d" fill-opacity="1" stroke="#2c4270" stroke-width="1"/>
<rect x="1090" y="1209" width="124" height="124" rx="6.0" fill="#1f2e4d" fill-opacity="1" stroke="#2c4270" stroke-width="1"/>
<rect x="1218" y="569" width="124" height="124" rx="6.0" fill="#1f2e4d" fill-opacity="1" stroke="#2c4270" stroke-width="1"/>
<rect x="1218" y="697" width="124" height="124" rx="6.0" fill="#1f2e4d" fill-opacity="1" stroke="#2c4270" stroke-width="1"/>
<rect x="1218" y="825" width="124" height="124" rx="6.0" fill="#1f2e4d" fill-opacity="1" stroke="#2c4270" stroke-width="1"/>
<rect x="1218" y="953" width="124" height="124" rx="6.0" fill="#1f2e4d" fill-opacity="1" stroke="#2c4270" stroke-width="1"/>
<rect x="1218" y="1081" width="124" height="124" rx="6.0" fill="#1f2e4d" fill-opacity="1" stroke="#2c4270" stroke-width="1"/>
<rect x="1218" y="1209" width="124" height="124" rx="6.0" fill="#1f2e4d" fill-opacity="1" stroke="#2c4270" stroke-width="1"/>
<text x="960.0" y="555.0" font-family="Inter,Arial,sans-serif" font-size="18" font-weight="600" fill="#9fb3d9" text-anchor="middle" dominant-baseline="middle">grid 6x6  cell 124 gap 4  (578,569,764x764)</text>
<rect x="1090" y="953" width="124" height="124" rx="6.0" fill="none" fill-opacity="1.0" stroke="#ffffff" stroke-width="3.0" stroke-dasharray="8.0,6.0"/>
<text x="1152.0" y="1015.0" font-family="Inter,Arial,sans-serif" font-size="18" font-weight="600" fill="#ffffff" text-anchor="middle" dominant-baseline="middle">target</text>
<rect x="452" y="450" width="116" height="100" rx="10" fill="#4b283d" fill-opacity="0.8" stroke="#4b283d" stroke-width="2"/>
<text x="510.0" y="500.0" font-family="Inter,Arial,sans-serif" font-size="16" font-weight="600" fill="#e8e8e8" text-anchor="middle" dominant-baseline="middle">horn</text>
<rect x="1352" y="450" width="116" height="100" rx="10" fill="#4b283d" fill-opacity="0.8" stroke="#4b283d" stroke-width="2"/>
<text x="1410.0" y="500.0" font-family="Inter,Arial,sans-serif" font-size="16" font-weight="600" fill="#e8e8e8" text-anchor="middle" dominant-baseline="middle">horn</text>
<rect x="1472" y="460" width="428" height="236" rx="8" fill="none" fill-opacity="1.0" stroke="#ffc629" stroke-width="2.5" stroke-dasharray="10,6"/>
<text x="1686.0" y="578.0" font-family="Inter,Arial,sans-serif" font-size="26" font-weight="600" fill="#ffc629" text-anchor="middle" dominant-baseline="middle">LOGO</text>
<rect x="72" y="532" width="352" height="420" rx="12" fill="#4b283d" fill-opacity="0.55" stroke="#4b283d" stroke-width="2"/>
<rect x="96" y="952" width="304" height="320" rx="12" fill="#4b283d" fill-opacity="0.4" stroke="#4b283d" stroke-width="2"/>
<text x="248.0" y="978" font-family="Inter,Arial,sans-serif" font-size="16" font-weight="600" fill="#e8e8e8" text-anchor="middle" dominant-baseline="middle">lower cabinet</text>
<rect x="0" y="977" width="434" height="496" rx="4" fill="none" fill-opacity="1.0" stroke="#3f9d3a" stroke-width="3" stroke-dasharray="14,8"/>
<text x="217.0" y="1007" font-family="Inter,Arial,sans-serif" font-size="24" font-weight="600" fill="#3f9d3a" text-anchor="middle" dominant-baseline="middle">GUMBO</text>
<circle cx="217" cy="1473" r="7" fill="#3f9d3a"/>
<rect x="1560" y="850" width="360" height="630" rx="4" fill="none" fill-opacity="1.0" stroke="#8fbf3a" stroke-width="3" stroke-dasharray="14,8"/>
<text x="1740.0" y="880" font-family="Inter,Arial,sans-serif" font-size="24" font-weight="600" fill="#8fbf3a" text-anchor="middle" dominant-baseline="middle">CROAK</text>
<circle cx="1740" cy="1480" r="7" fill="#8fbf3a"/>
<rect x="1436" y="1060" width="230" height="300" rx="6" fill="none" fill-opacity="1.0" stroke="#ff5fa2" stroke-width="2.5" stroke-dasharray="6,5"/>
<text x="1551.0" y="1338" font-family="Inter,Arial,sans-serif" font-size="18" font-weight="600" fill="#ff5fa2" text-anchor="middle" dominant-baseline="middle">DJ booth</text>
<circle cx="248" cy="738" r="160.0" fill="#15102a" stroke="#35f2e0" stroke-width="3.0"/>
<circle cx="248" cy="738" r="140.0" fill="none" stroke="#4b3bff" stroke-width="2.0"/>
<path d="M186.0,845.4 A124.0,124.0 0 1 1 310.0,845.4" fill="none" stroke="#243056" stroke-width="24.0"/>
<path d="M186.0,845.4 A124.0,124.0 0 0 1 176.9,636.4" fill="none" stroke="#35f2e0" stroke-opacity="0.85" stroke-width="24.0"/>
<line x1="192.0" y1="835.0" x2="180.0" y2="855.8" stroke="#0a0420" stroke-width="1.2"/>
<line x1="183.8" y1="829.7" x2="170.0" y2="849.4" stroke="#0a0420" stroke-width="1.2"/>
<line x1="176.0" y1="823.8" x2="160.6" y2="842.2" stroke="#0a0420" stroke-width="1.2"/>
<line x1="168.8" y1="817.2" x2="151.8" y2="834.2" stroke="#0a0420" stroke-width="1.2"/>
<line x1="162.2" y1="810.0" x2="143.8" y2="825.4" stroke="#0a0420" stroke-width="1.2"/>
<line x1="156.3" y1="802.2" x2="136.6" y2="816.0" stroke="#0a0420" stroke-width="1.2"/>
<line x1="151.0" y1="794.0" x2="130.2" y2="806.0" stroke="#0a0420" stroke-width="1.2"/>
<line x1="146.5" y1="785.3" x2="124.7" y2="795.5" stroke="#0a0420" stroke-width="1.2"/>
<line x1="142.8" y1="776.3" x2="120.2" y2="784.5" stroke="#0a0420" stroke-width="1.2"/>
<line x1="139.8" y1="767.0" x2="116.6" y2="773.2" stroke="#0a0420" stroke-width="1.2"/>
<line x1="137.7" y1="757.4" x2="114.1" y2="761.6" stroke="#0a0420" stroke-width="1.2"/>
<line x1="136.4" y1="747.8" x2="112.5" y2="749.9" stroke="#0a0420" stroke-width="1.2"/>
<line x1="136.0" y1="738.0" x2="112.0" y2="738.0" stroke="#0a0420" stroke-width="1.2"/>
<line x1="136.4" y1="728.2" x2="112.5" y2="726.1" stroke="#0a0420" stroke-width="1.2"/>
<line x1="137.7" y1="718.6" x2="114.1" y2="714.4" stroke="#0a0420" stroke-width="1.2"/>
<line x1="139.8" y1="709.0" x2="116.6" y2="702.8" stroke="#0a0420" stroke-width="1.2"/>
<line x1="142.8" y1="699.7" x2="120.2" y2="691.5" stroke="#0a0420" stroke-width="1.2"/>
<line x1="146.5" y1="690.7" x2="124.7" y2="680.5" stroke="#0a0420" stroke-width="1.2"/>
<line x1="151.0" y1="682.0" x2="130.2" y2="670.0" stroke="#0a0420" stroke-width="1.2"/>
<line x1="156.3" y1="673.8" x2="136.6" y2="660.0" stroke="#0a0420" stroke-width="1.2"/>
<line x1="162.2" y1="666.0" x2="143.8" y2="650.6" stroke="#0a0420" stroke-width="1.2"/>
<line x1="168.8" y1="658.8" x2="151.8" y2="641.8" stroke="#0a0420" stroke-width="1.2"/>
<line x1="176.0" y1="652.2" x2="160.6" y2="633.8" stroke="#0a0420" stroke-width="1.2"/>
<line x1="183.8" y1="646.3" x2="170.0" y2="626.6" stroke="#0a0420" stroke-width="1.2"/>
<line x1="192.0" y1="641.0" x2="180.0" y2="620.2" stroke="#0a0420" stroke-width="1.2"/>
<line x1="200.7" y1="636.5" x2="190.5" y2="614.7" stroke="#0a0420" stroke-width="1.2"/>
<line x1="209.7" y1="632.8" x2="201.5" y2="610.2" stroke="#0a0420" stroke-width="1.2"/>
<line x1="219.0" y1="629.8" x2="212.8" y2="606.6" stroke="#0a0420" stroke-width="1.2"/>
<line x1="228.6" y1="627.7" x2="224.4" y2="604.1" stroke="#0a0420" stroke-width="1.2"/>
<line x1="238.2" y1="626.4" x2="236.1" y2="602.5" stroke="#0a0420" stroke-width="1.2"/>
<line x1="248.0" y1="626.0" x2="248.0" y2="602.0" stroke="#0a0420" stroke-width="1.2"/>
<line x1="257.8" y1="626.4" x2="259.9" y2="602.5" stroke="#0a0420" stroke-width="1.2"/>
<line x1="267.4" y1="627.7" x2="271.6" y2="604.1" stroke="#0a0420" stroke-width="1.2"/>
<line x1="277.0" y1="629.8" x2="283.2" y2="606.6" stroke="#0a0420" stroke-width="1.2"/>
<line x1="286.3" y1="632.8" x2="294.5" y2="610.2" stroke="#0a0420" stroke-width="1.2"/>
<line x1="295.3" y1="636.5" x2="305.5" y2="614.7" stroke="#0a0420" stroke-width="1.2"/>
<line x1="304.0" y1="641.0" x2="316.0" y2="620.2" stroke="#0a0420" stroke-width="1.2"/>
<line x1="312.2" y1="646.3" x2="326.0" y2="626.6" stroke="#0a0420" stroke-width="1.2"/>
<line x1="320.0" y1="652.2" x2="335.4" y2="633.8" stroke="#0a0420" stroke-width="1.2"/>
<line x1="327.2" y1="658.8" x2="344.2" y2="641.8" stroke="#0a0420" stroke-width="1.2"/>
<line x1="333.8" y1="666.0" x2="352.2" y2="650.6" stroke="#0a0420" stroke-width="1.2"/>
<line x1="339.7" y1="673.8" x2="359.4" y2="660.0" stroke="#0a0420" stroke-width="1.2"/>
<line x1="345.0" y1="682.0" x2="365.8" y2="670.0" stroke="#0a0420" stroke-width="1.2"/>
<line x1="349.5" y1="690.7" x2="371.3" y2="680.5" stroke="#0a0420" stroke-width="1.2"/>
<line x1="353.2" y1="699.7" x2="375.8" y2="691.5" stroke="#0a0420" stroke-width="1.2"/>
<line x1="356.2" y1="709.0" x2="379.4" y2="702.8" stroke="#0a0420" stroke-width="1.2"/>
<line x1="358.3" y1="718.6" x2="381.9" y2="714.4" stroke="#0a0420" stroke-width="1.2"/>
<line x1="359.6" y1="728.2" x2="383.5" y2="726.1" stroke="#0a0420" stroke-width="1.2"/>
<line x1="360.0" y1="738.0" x2="384.0" y2="738.0" stroke="#0a0420" stroke-width="1.2"/>
<line x1="359.6" y1="747.8" x2="383.5" y2="749.9" stroke="#0a0420" stroke-width="1.2"/>
<line x1="358.3" y1="757.4" x2="381.9" y2="761.6" stroke="#0a0420" stroke-width="1.2"/>
<line x1="356.2" y1="767.0" x2="379.4" y2="773.2" stroke="#0a0420" stroke-width="1.2"/>
<line x1="353.2" y1="776.3" x2="375.8" y2="784.5" stroke="#0a0420" stroke-width="1.2"/>
<line x1="349.5" y1="785.3" x2="371.3" y2="795.5" stroke="#0a0420" stroke-width="1.2"/>
<line x1="345.0" y1="794.0" x2="365.8" y2="806.0" stroke="#0a0420" stroke-width="1.2"/>
<line x1="339.7" y1="802.2" x2="359.4" y2="816.0" stroke="#0a0420" stroke-width="1.2"/>
<line x1="333.8" y1="810.0" x2="352.2" y2="825.4" stroke="#0a0420" stroke-width="1.2"/>
<line x1="327.2" y1="817.2" x2="344.2" y2="834.2" stroke="#0a0420" stroke-width="1.2"/>
<line x1="320.0" y1="823.8" x2="335.4" y2="842.2" stroke="#0a0420" stroke-width="1.2"/>
<line x1="312.2" y1="829.7" x2="326.0" y2="849.4" stroke="#0a0420" stroke-width="1.2"/>
<line x1="304.0" y1="835.0" x2="316.0" y2="855.8" stroke="#0a0420" stroke-width="1.2"/>
<circle cx="248" cy="738" r="84.0" fill="#241a44" stroke="#ffc629" stroke-width="2.0"/>
<text x="248" y="738" font-family="Inter,Arial,sans-serif" font-size="42" font-weight="800" fill="#ffffff" text-anchor="middle" dominant-baseline="middle">23/60</text>
<circle cx="99.9" cy="764.1" r="24.0" fill="#0a0420" stroke="#35f2e0" stroke-width="2.5"/>
<text x="99.88491394696393" y="764.1166859211063" font-family="Inter,Arial,sans-serif" font-size="22" font-weight="800" fill="#35f2e0" text-anchor="middle" dominant-baseline="middle">W</text>
<circle cx="132.8" cy="641.3" r="24.0" fill="#0a0420" stroke="#35f2e0" stroke-width="2.5"/>
<text x="132.78691575490572" y="641.3247435031445" font-family="Inter,Arial,sans-serif" font-size="22" font-weight="800" fill="#35f2e0" text-anchor="middle" dominant-baseline="middle">W</text>
<circle cx="248.0" cy="587.6" r="24.0" fill="#0a0420" stroke="#35f2e0" stroke-width="2.5"/>
<text x="248.0" y="587.6" font-family="Inter,Arial,sans-serif" font-size="22" font-weight="800" fill="#35f2e0" text-anchor="middle" dominant-baseline="middle">W</text>
<circle cx="363.2" cy="641.3" r="24.0" fill="#0a0420" stroke="#ffc629" stroke-width="2.5"/>
<text x="363.21308424509425" y="641.3247435031445" font-family="Inter,Arial,sans-serif" font-size="22" font-weight="800" fill="#ffc629" text-anchor="middle" dominant-baseline="middle">JJ</text>
<circle cx="396.1" cy="764.1" r="24.0" fill="#0a0420" stroke="#35f2e0" stroke-width="2.5"/>
<text x="396.11508605303607" y="764.1166859211063" font-family="Inter,Arial,sans-serif" font-size="22" font-weight="800" fill="#35f2e0" text-anchor="middle" dominant-baseline="middle">W</text>
<circle cx="323.2" cy="868.3" r="24.0" fill="#0a0420" stroke="#ff3fa8" stroke-width="2.5"/>
<text x="323.2" y="868.2502207291795" font-family="Inter,Arial,sans-serif" font-size="22" font-weight="800" fill="#ff3fa8" text-anchor="middle" dominant-baseline="middle">MM</text>
<rect x="112" y="898" width="272" height="56" rx="28.0" fill="#0a0420" fill-opacity="0.9" stroke="#f8d828" stroke-width="2"/>
<text x="248.0" y="926.0" font-family="Inter,Arial,sans-serif" font-size="22" font-weight="600" fill="#f8d828" text-anchor="middle" dominant-baseline="middle">NEXT DROP 30 · W W</text>
<rect x="1514" y="720" width="344" height="110" rx="16" fill="#0a0420" fill-opacity="0.8" stroke="#35f2e0" stroke-width="2"/>
<text x="1686.0" y="775.0" font-family="Inter,Arial,sans-serif" font-size="20" font-weight="600" fill="#35f2e0" text-anchor="middle" dominant-baseline="middle">FS PLATE: JUKE JAM 3/8</text>
<path d="M248,738 Q700.0,-24.4 1152.0,1015.0" fill="none" stroke="#ffffff" stroke-width="3.0" stroke-dasharray="12.0,8.0"/>
<text x="700.0" y="401.4" font-family="Inter,Arial,sans-serif" font-size="18" font-weight="600" fill="#ffffff" text-anchor="middle" dominant-baseline="middle">wild arc (apex y 415, min 300)</text>
<path d="M1280.0,1271.0 Q865.0,809.0 248,738" fill="none" stroke="#35f2e0" stroke-width="2.5" stroke-dasharray="4.0,6.0"/>
<circle cx="1280.0" cy="1271.0" r="9.0" fill="#35f2e0"/>
<text x="864.9545102481703" y="829.0308544538241" font-family="Inter,Arial,sans-serif" font-size="18" font-weight="600" fill="#35f2e0" text-anchor="middle" dominant-baseline="middle">orb path</text>
<rect x="825.0" y="1358.5" width="270.0" height="45.0" rx="22.5" fill="#0a0420" fill-opacity="0.8" stroke="#ffd54a" stroke-width="2"/>
<text x="960" y="1381" font-family="Inter,Arial,sans-serif" font-size="18" font-weight="600" fill="#ffd54a" text-anchor="middle" dominant-baseline="middle">tumble win</text>
<polygon points="1801.2,1074.0 1770.0,1092.0 1738.8,1074.0 1738.8,1038.0 1770.0,1020.0 1801.2,1038.0" fill="#000000" fill-opacity="0.35" stroke="#8a8a8a" stroke-width="3"/>
<polygon points="1872.2,1100.0 1841.0,1118.0 1809.8,1100.0 1809.8,1064.0 1841.0,1046.0 1872.2,1064.0" fill="#000000" fill-opacity="0.35" stroke="#8a8a8a" stroke-width="3"/>
<polygon points="197.2,1150.0 166.0,1168.0 134.8,1150.0 134.8,1114.0 166.0,1096.0 197.2,1114.0" fill="#000000" fill-opacity="0.35" stroke="#8a8a8a" stroke-width="3"/>
<polygon points="1560.2,1578.0 1529.0,1596.0 1497.8,1578.0 1497.8,1542.0 1529.0,1524.0 1560.2,1542.0" fill="#000000" fill-opacity="0.35" stroke="#8a8a8a" stroke-width="3"/>
<polygon points="1885.2,1578.0 1854.0,1596.0 1822.8,1578.0 1822.8,1542.0 1854.0,1524.0 1885.2,1542.0" fill="#000000" fill-opacity="0.35" stroke="#8a8a8a" stroke-width="3"/>
<polygon points="226.2,1310.0 150.0,1354.0 73.8,1310.0 73.8,1222.0 150.0,1178.0 226.2,1222.0" fill="#f828c8" fill-opacity="0.35" stroke="#f828c8" stroke-width="3"/>
<text x="150" y="1266" font-family="Inter,Arial,sans-serif" font-size="18" font-weight="600" fill="#ffffff" text-anchor="middle" dominant-baseline="middle">BUY</text>
<polygon points="1837.0,1327.2 1699.1,1351.6 1609.1,1244.3 1657.0,1112.8 1794.9,1088.4 1884.9,1195.7" fill="#000000" fill-opacity="0.35" stroke="#ffffff" stroke-width="3"/>
<text x="1747" y="1220" font-family="Inter,Arial,sans-serif" font-size="26" font-weight="600" fill="#ffffff" text-anchor="middle" dominant-baseline="middle">SPIN</text>
<text x="46" y="1551" font-family="Inter,Arial,sans-serif" font-size="22" font-weight="600" fill="#f8d828" text-anchor="start" dominant-baseline="middle">BALANCE</text>
<text x="1692" y="1551" font-family="Inter,Arial,sans-serif" font-size="22" font-weight="600" fill="#f8d828" text-anchor="middle" dominant-baseline="middle">BET</text>
<text x="960" y="1480" font-family="Inter,Arial,sans-serif" font-size="22" font-weight="600" fill="#f8d828" text-anchor="middle" dominant-baseline="middle">WIN</text>
<circle cx="960" cy="951" r="6" fill="none" stroke="#ffffff" stroke-width="2"/>
<text x="12" y="1906" font-family="Inter,Arial,sans-serif" font-size="16" font-weight="500" fill="#6b6b8a" text-anchor="start" dominant-baseline="middle">Bass Drop · tablet 1920x1920 · generated from layout.json</text>
</svg>